<!DOCTYPE svg PUBLIC "-//W3C//DTD SVG 20010904//EN" "http://www.w3.org/TR/2001/REC-SVG-20010904/DTD/svg10.dtd">
<svg version="1.0" xmlns="http://www.w3.org/2000/svg" width="668px" height="151px" viewBox="0 0 6680 1510" preserveAspectRatio="xMidYMid meet">
<g id="layer101" fill="#1fc9f0" stroke="none">
 <path d="M4608 1260 c-211 -36 -380 -180 -440 -375 -30 -97 -30 -233 0 -331 90 -292 428 -451 747 -354 87 27 146 60 208 118 l47 45 -22 25 c-13 13 -53 51 -91 84 l-67 60 -41 -37 c-65 -58 -121 -79 -215 -80 -70 0 -88 4 -139 30 -100 51 -155 149 -155 275 0 126 55 224 155 275 51 26 69 30 139 30 94 -1 150 -22 215 -80 l41 -37 67 60 c38 33 78 71 90 84 l23 24 -32 33 c-122 125 -331 184 -530 151z"/>
 <path d="M1540 1249 c-41 -16 -90 -70 -101 -111 -30 -115 57 -216 178 -206 57 5 92 25 127 72 31 41 29 139 -2 184 -44 60 -134 88 -202 61z"/>
 <path d="M200 1145 l0 -105 291 0 c314 0 367 -6 399 -48 24 -30 26 -93 4 -127 -29 -44 -60 -48 -386 -53 l-308 -4 0 -99 0 -99 288 0 c331 0 349 -4 366 -73 12 -47 0 -83 -37 -111 -27 -20 -42 -21 -323 -24 l-294 -3 0 -105 0 -104 293 0 c160 0 322 5 359 10 192 28 301 124 302 265 0 78 -31 143 -90 193 -24 20 -44 39 -44 43 0 4 11 10 26 13 14 4 49 30 79 59 43 42 57 64 70 111 42 145 -37 282 -190 331 -93 29 -174 35 -492 35 l-313 0 0 -105z"/>
 <path d="M2220 835 l0 -415 -165 0 -165 0 0 -115 0 -115 470 0 470 0 0 115 0 115 -160 0 -160 0 0 415 0 415 -145 0 -145 0 0 -415z"/>
 <path d="M3070 1135 l0 -115 415 0 415 0 0 115 0 115 -415 0 -415 0 0 -115z"/>
 <path d="M5430 720 l0 -530 145 0 145 0 0 200 0 200 210 0 210 0 0 -200 0 -200 145 0 145 0 0 530 0 530 -145 0 -145 0 0 -210 0 -210 -207 2 -208 3 -3 208 -2 207 -145 0 -145 0 0 -530z"/>
 <path d="M3070 710 l0 -110 415 0 415 0 0 110 0 110 -415 0 -415 0 0 -110z"/>
 <path d="M3070 305 l0 -115 415 0 415 0 0 115 0 115 -415 0 -415 0 0 -115z"/>
 </g>

</svg>